# xmcd
#
# Track frame offsets: 
#        150
#        15696
#        24957
#        30281
#        37286
#        64673
#        79402
#        88687
#
# Disc length: 1345 seconds
#
# Revision: 0
# Processed by: cddbd v1.5.2PL0 Copyright (c) Steve Scherf et al.
# Submitted via: ExactAudioCopyFreeDBPlugin 1.0
#
DISCID=5a053f08
DTITLE=DJ Def Chad - The Remedy [CD Single)
DYEAR=2014
DGENRE=Hip-Hop
TTITLE0=The Remedy (Edited For The Kids)
TTITLE1=Beef (80% Lean)
TTITLE2=Rappers (Part 3)
TTITLE3=Rappers (Part 4)
TTITLE4=The Remedy (Homeopathic Mixx) (Featuring The Impossebulls)
TTITLE5=The Remedy (Instrumental)
TTITLE6=Beef (All Fatt)
TTITLE7=The Remedy (Scrip)
EXTD=
EXTT0=
EXTT1=
EXTT2=
EXTT3=
EXTT4=
EXTT5=
EXTT6=
EXTT7=
PLAYORDER=
